<svg width="148" height="36" viewBox="0 0 148 36" fill="none" xmlns="http://www.w3.org/2000/svg">
<mask id="mask0_4965_2242" style="mask-type:luminance" maskUnits="userSpaceOnUse" x="1" y="0" width="146" height="36">
<path d="M146.609 0H1.29688V36H146.609V0Z" fill="white"/>
</mask>
<g mask="url(#mask0_4965_2242)">
<path opacity="0.2" d="M31.2891 17.5975H28.7337C28.5228 11.0859 23.2031 5.7666 16.6916 5.55569V3H15.8865V5.55569C9.37499 5.7666 4.05527 11.0859 3.84434 17.5975H1.28906V18.4025H3.84434C4.05527 24.9141 9.37499 30.2334 15.8865 30.4443V33H16.6916V30.4443C23.2031 30.2334 28.5228 24.9141 28.7337 18.4025H31.2891V17.5975Z" fill="white"/>
<path opacity="0.5" d="M7.05469 12.5221L16.2912 17.8548L25.5273 12.5221L16.2912 7.18945L7.05469 12.5221Z" fill="white"/>
<path opacity="0.9" d="M25.7521 12.9121L16.5156 18.2447V28.91L25.7521 23.5777V12.9121Z" fill="white"/>
<path opacity="0.6" d="M6.82812 23.5777L16.0643 28.91V18.2447L6.82812 12.9121V23.5777Z" fill="white"/>
<path d="M16.2883 17.2305C16.1551 17.2305 16.0469 17.1287 16.0469 16.9951V16.9832C16.0469 16.8499 16.1551 16.7422 16.2883 16.7422C16.4215 16.7422 16.5297 16.8499 16.5297 16.9832C16.5297 17.1168 16.4215 17.2305 16.2883 17.2305Z" fill="white"/>
<path d="M16.2883 9.58182C16.1551 9.58182 16.0469 9.47412 16.0469 9.34032V9.31572C16.0469 9.18222 16.1551 9.07422 16.2883 9.07422C16.4215 9.07422 16.5297 9.18222 16.5297 9.31572V9.34032C16.5297 9.47412 16.4215 9.58182 16.2883 9.58182ZM16.2883 10.8598C16.1551 10.8598 16.0469 10.7521 16.0469 10.6183V10.5934C16.0469 10.4602 16.1551 10.3522 16.2883 10.3522C16.4215 10.3522 16.5297 10.4602 16.5297 10.5934V10.6183C16.5297 10.7521 16.4215 10.8598 16.2883 10.8598ZM16.2883 12.138C16.1551 12.138 16.0469 12.0302 16.0469 11.8966V11.8714C16.0469 11.7381 16.1551 11.6304 16.2883 11.6304C16.4215 11.6304 16.5297 11.7381 16.5297 11.8714V11.8966C16.5297 12.0302 16.4215 12.138 16.2883 12.138ZM16.2883 13.416C16.1551 13.416 16.0469 13.3081 16.0469 13.1746V13.1496C16.0469 13.0164 16.1551 12.9082 16.2883 12.9082C16.4215 12.9082 16.5297 13.0164 16.5297 13.1496V13.1746C16.5297 13.3081 16.4215 13.416 16.2883 13.416ZM16.2883 14.6942C16.1551 14.6942 16.0469 14.5864 16.0469 14.4529V14.4277C16.0469 14.2943 16.1551 14.1865 16.2883 14.1865C16.4215 14.1865 16.5297 14.2943 16.5297 14.4277V14.4529C16.5297 14.5864 16.4215 14.6942 16.2883 14.6942ZM16.2883 15.9721C16.1551 15.9721 16.0469 15.8642 16.0469 15.7306V15.7058C16.0469 15.5726 16.1551 15.4646 16.2883 15.4646C16.4215 15.4646 16.5297 15.5726 16.5297 15.7058V15.7306C16.5297 15.8642 16.4215 15.9721 16.2883 15.9721Z" fill="white"/>
<path d="M16.2883 8.3012C16.1551 8.3012 16.0469 8.1992 16.0469 8.066V8.054C16.0469 7.9205 16.1551 7.8125 16.2883 7.8125C16.4215 7.8125 16.5297 7.9205 16.5297 8.054C16.5297 8.1872 16.4215 8.3012 16.2883 8.3012Z" fill="white"/>
<path d="M15.3116 18.9212C15.2278 18.9212 15.1461 18.8774 15.102 18.7991C15.036 18.6831 15.0764 18.536 15.1924 18.47C15.3082 18.4036 15.4611 18.442 15.5264 18.5577C15.5924 18.6735 15.5573 18.8178 15.4411 18.8837L15.4309 18.8897C15.3932 18.911 15.3522 18.9212 15.3116 18.9212Z" fill="white"/>
<path d="M14.2055 19.5614C14.1222 19.5614 14.0407 19.5181 13.9963 19.4407C13.9294 19.3249 13.9692 19.1776 14.0847 19.1111L14.1065 19.0986C14.2221 19.0321 14.3698 19.072 14.436 19.1874C14.5028 19.3027 14.463 19.4503 14.3475 19.5166L14.3258 19.5292C14.2878 19.5511 14.2462 19.5614 14.2055 19.5614ZM13.0987 20.2007C13.0151 20.2007 12.934 20.1574 12.8893 20.0798C12.8227 19.9642 12.8625 19.8166 12.978 19.7501L12.9995 19.7378C13.1151 19.671 13.263 19.7109 13.3292 19.8263C13.3956 19.9417 13.3558 20.0894 13.2405 20.1559L13.2188 20.1682C13.1809 20.1901 13.1393 20.2007 13.0987 20.2007ZM11.9917 20.8397C11.9092 20.8397 11.8286 20.7972 11.7835 20.7204C11.7161 20.6056 11.7544 20.4576 11.8692 20.3902L11.8909 20.3776C12.0055 20.3097 12.1538 20.3486 12.2212 20.4636C12.2885 20.5784 12.2502 20.7263 12.1354 20.7937L12.1137 20.8066C12.0755 20.8291 12.0333 20.8397 11.9917 20.8397ZM10.8852 21.4786C10.8017 21.4786 10.7203 21.4353 10.6757 21.3576C10.6092 21.2423 10.6491 21.0946 10.7645 21.0284L10.7862 21.0157C10.9016 20.9489 11.0493 20.9888 11.1155 21.1042C11.1823 21.2199 11.1424 21.3673 11.027 21.4337L11.0053 21.4464C10.9672 21.4681 10.9259 21.4786 10.8852 21.4786ZM9.77801 22.1175C9.69494 22.1175 9.61337 22.0742 9.56897 21.997C9.5024 21.8812 9.54188 21.7337 9.65768 21.6673L9.67934 21.6548C9.79514 21.5882 9.94208 21.6284 10.0087 21.7435C10.0755 21.8589 10.0356 22.0066 9.92018 22.0728L9.89849 22.0853C9.86042 22.1074 9.81917 22.1175 9.77801 22.1175ZM8.67131 22.7569C8.58797 22.7569 8.50667 22.7136 8.462 22.6359C8.39534 22.5204 8.43518 22.3728 8.55047 22.3066L8.57216 22.2939C8.68796 22.2269 8.83538 22.2671 8.9018 22.3824C8.96861 22.4982 8.92877 22.6455 8.81333 22.712L8.79167 22.7247C8.75357 22.7462 8.71196 22.7569 8.67131 22.7569Z" fill="white"/>
<path d="M7.57767 23.3898C7.49424 23.3898 7.41303 23.3465 7.36827 23.2691C7.3017 23.1537 7.34118 23.006 7.45674 22.9392C7.57218 22.8728 7.72476 22.9093 7.79154 23.0248C7.85835 23.14 7.824 23.2846 7.70856 23.3515L7.69815 23.3574C7.65993 23.3793 7.61868 23.3898 7.57767 23.3898Z" fill="white"/>
<path d="M17.2685 18.9215C17.2281 18.9215 17.1871 18.9113 17.1496 18.89C17.0336 18.8242 16.9879 18.6738 17.0538 18.558C17.1194 18.442 17.2611 18.3986 17.3775 18.4645L17.3881 18.4703C17.5038 18.5363 17.5445 18.6834 17.4783 18.7994C17.4341 18.8777 17.3523 18.9215 17.2685 18.9215Z" fill="white"/>
<path d="M18.3722 19.5614C18.3314 19.5614 18.2899 19.5511 18.2521 19.5292L18.2304 19.5166C18.115 19.4503 18.0751 19.3027 18.1415 19.1874C18.2077 19.072 18.3558 19.0321 18.4712 19.0986L18.4929 19.1111C18.6083 19.1776 18.6481 19.3249 18.5813 19.4407C18.5368 19.5181 18.4557 19.5614 18.3722 19.5614ZM19.479 20.2007C19.4383 20.2007 19.3966 20.1901 19.3589 20.1682L19.3372 20.1559C19.2218 20.0894 19.1819 19.9417 19.2485 19.8263C19.3147 19.7109 19.4626 19.671 19.578 19.7378L19.5997 19.7501C19.7151 19.8166 19.755 19.9642 19.6882 20.0798C19.6437 20.1574 19.5625 20.2007 19.479 20.2007ZM20.5858 20.8397C20.5446 20.8397 20.5024 20.8291 20.464 20.8066L20.4423 20.7937C20.3275 20.7263 20.289 20.5784 20.3564 20.4636C20.4241 20.3486 20.5714 20.3097 20.6866 20.3776L20.7083 20.3902C20.8231 20.4576 20.8615 20.6056 20.7941 20.7204C20.7493 20.7972 20.6687 20.8397 20.5858 20.8397ZM21.6927 21.4786C21.6517 21.4786 21.6103 21.4681 21.5723 21.4464L21.5506 21.4337C21.4351 21.3673 21.3952 21.2199 21.4622 21.1042C21.5286 20.9888 21.676 20.9489 21.7913 21.0157L21.8131 21.0284C21.9288 21.0946 21.9687 21.2423 21.9019 21.3576C21.8573 21.4353 21.7759 21.4786 21.6927 21.4786ZM22.7995 22.1175C22.7587 22.1175 22.7173 22.1074 22.679 22.0853L22.6575 22.0728C22.5421 22.0066 22.5022 21.8589 22.5689 21.7435C22.6354 21.6284 22.7827 21.5882 22.8985 21.6548L22.9202 21.6673C23.0356 21.7337 23.0755 21.8812 23.0087 21.997C22.9642 22.0742 22.8827 22.1175 22.7995 22.1175ZM23.9062 22.7569C23.8657 22.7569 23.824 22.7462 23.7862 22.7247L23.7646 22.712C23.6491 22.6455 23.6092 22.4982 23.6758 22.3824C23.7424 22.2671 23.8897 22.2269 24.0055 22.2939L24.0271 22.3066C24.1426 22.3728 24.1822 22.5204 24.1156 22.6359C24.0709 22.7136 23.9899 22.7569 23.9062 22.7569Z" fill="white"/>
<path d="M25.0028 23.3904C24.9611 23.3904 24.9191 23.3797 24.8804 23.3568C24.7655 23.2891 24.7223 23.1379 24.7901 23.023C24.8582 22.9084 25.0007 22.8674 25.1156 22.9351L25.1258 22.9412C25.2407 23.009 25.2788 23.157 25.211 23.2718C25.1657 23.348 25.0853 23.3904 25.0028 23.3904Z" fill="white"/>
<path d="M139.111 26.0881H135.883V10.9293L139.111 10.582V26.0881ZM142.604 20.0409L146.466 26.0881H142.788L139.233 20.1431L142.809 15.24H146.18L142.604 20.0409Z" fill="white"/>
<path d="M129.813 23.8844C130.222 23.8844 130.617 23.8095 130.998 23.6597C131.379 23.4963 131.788 23.2647 132.224 22.9651L133.654 25.0081C133.136 25.4439 132.537 25.7912 131.856 26.05C131.175 26.3088 130.433 26.4381 129.629 26.4381C128.471 26.4381 127.47 26.1998 126.626 25.7231C125.795 25.2464 125.155 24.5791 124.705 23.721C124.256 22.863 124.031 21.8687 124.031 20.7383C124.031 19.6079 124.263 18.6 124.726 17.7147C125.189 16.8294 125.843 16.1348 126.687 15.6309C127.545 15.127 128.546 14.875 129.69 14.875C130.494 14.875 131.216 14.9908 131.856 15.2223C132.496 15.4402 133.095 15.7807 133.654 16.2438L132.265 18.1846C131.475 17.6398 130.664 17.3674 129.833 17.3674C128.213 17.3674 127.402 18.491 127.402 20.7383C127.402 21.8687 127.613 22.6791 128.036 23.1694C128.458 23.6461 129.05 23.8844 129.813 23.8844Z" fill="white"/>
<path d="M116.904 14.875C118.552 14.875 119.839 15.3994 120.765 16.4481C121.705 17.4832 122.175 18.8792 122.175 20.6361C122.175 22.4612 121.712 23.8844 120.785 24.9059C119.859 25.9274 118.565 26.4381 116.904 26.4381C115.242 26.4381 113.948 25.9342 113.022 24.9264C112.096 23.9049 111.633 22.4816 111.633 20.6566C111.633 19.4989 111.837 18.491 112.246 17.633C112.668 16.7613 113.274 16.0872 114.064 15.6105C114.868 15.1202 115.814 14.875 116.904 14.875ZM116.904 17.2653C116.236 17.2653 115.746 17.5377 115.433 18.0824C115.12 18.6136 114.963 19.4717 114.963 20.6566C114.963 21.8551 115.12 22.7268 115.433 23.2716C115.746 23.8027 116.236 24.0683 116.904 24.0683C117.571 24.0683 118.061 23.7959 118.375 23.2511C118.688 22.7063 118.845 21.8347 118.845 20.6361C118.845 19.4648 118.688 18.6136 118.375 18.0824C118.061 17.5377 117.571 17.2653 116.904 17.2653Z" fill="white"/>
<path d="M106.024 22.6767C106.024 23.4803 106.488 23.882 107.414 23.882C107.918 23.882 108.435 23.7731 108.966 23.5552L109.722 25.7207C108.851 26.1974 107.809 26.4357 106.596 26.4357C105.33 26.4357 104.376 26.0748 103.736 25.353C103.11 24.6175 102.796 23.5892 102.796 22.2681V13.1361H99.6094V10.9297H106.024V22.6767Z" fill="white"/>
<path d="M98.7559 21.9441C98.7559 23.4559 98.2179 24.525 97.1419 25.1515C96.0795 25.778 94.6767 26.0913 92.9333 26.0913H88.2344V11.9336H92.729C94.3498 11.9336 95.6573 12.2196 96.6516 12.7916C97.6458 13.35 98.143 14.2694 98.143 15.5496C98.143 16.3532 97.8978 17.0138 97.4075 17.5313C96.9172 18.0488 96.2975 18.403 95.5484 18.5936C96.4473 18.7435 97.2032 19.0839 97.8161 19.6151C98.4426 20.1327 98.7559 20.909 98.7559 21.9441ZM94.772 15.8969C94.772 15.3385 94.5949 14.9367 94.2408 14.6916C93.9003 14.4328 93.3555 14.3034 92.6064 14.3034H91.5849V17.5926H92.729C93.4372 17.5926 93.9548 17.4632 94.2817 17.2044C94.6086 16.932 94.772 16.4962 94.772 15.8969ZM95.3032 21.8011C95.3032 21.0929 95.0989 20.5889 94.6903 20.2893C94.2953 19.9897 93.7165 19.8398 92.9537 19.8398H91.5849V23.6397H92.8107C93.5871 23.6397 94.1932 23.5104 94.629 23.2516C95.0785 22.9928 95.3032 22.5093 95.3032 21.8011Z" fill="white"/>
<path d="M82.3405 26.0903L81.4007 18.7969L80.42 26.0903H76.9265L75.3125 15.2422H78.2749L78.9899 24.0678L80.1136 16.611H82.8512L83.8523 24.0678L84.5878 15.2422H87.448L85.8953 26.0903H82.3405Z" fill="white"/>
<path d="M67.6408 21.6168C67.8451 23.2647 68.7168 24.0887 70.2559 24.0887C71.182 24.0887 72.1082 23.7891 73.0344 23.1898L74.3215 24.9468C73.7903 25.4099 73.1569 25.7776 72.4215 26.05C71.686 26.3088 70.8756 26.4381 69.9903 26.4381C68.7781 26.4381 67.7498 26.1998 66.9053 25.7231C66.0609 25.2328 65.4207 24.5586 64.9849 23.7006C64.5627 22.8289 64.3516 21.8211 64.3516 20.677C64.3516 19.5874 64.5559 18.6068 64.9645 17.7351C65.3867 16.8499 65.9928 16.1553 66.7827 15.6513C67.5863 15.1338 68.5397 14.875 69.643 14.875C70.6781 14.875 71.577 15.0997 72.3397 15.5492C73.1025 15.985 73.6881 16.6251 74.0967 17.4696C74.5189 18.3004 74.7301 19.2946 74.7301 20.4523C74.7301 20.9017 74.7096 21.2899 74.6688 21.6168H67.6408ZM69.643 17.0405C69.0573 17.0405 68.5874 17.2585 68.2333 17.6943C67.8792 18.1165 67.6681 18.7702 67.6 19.6555H71.5838C71.5566 17.9122 70.9096 17.0405 69.643 17.0405Z" fill="white"/>
<path d="M57.6797 9.5625C58.2382 9.5625 58.6944 9.73956 59.0486 10.0937C59.4027 10.4342 59.5797 10.8632 59.5797 11.3807C59.5797 11.9119 59.4027 12.3477 59.0486 12.6882C58.6944 13.0287 58.2382 13.199 57.6797 13.199C57.1213 13.199 56.6582 13.0287 56.2905 12.6882C55.9364 12.3341 55.7593 11.8983 55.7593 11.3807C55.7593 10.8632 55.9364 10.4342 56.2905 10.0937C56.6582 9.73956 57.1213 9.5625 57.6797 9.5625ZM59.6206 23.8836H62.3991V26.09H53.3281V23.8836H56.3926V17.4483H53.4303V15.2419H59.6206V23.8836Z" fill="white"/>
<path d="M48.5728 11.9336H52.0051L47.919 26.0913H43.7922L39.7266 11.9336H43.2814L45.9169 23.4763L48.5728 11.9336Z" fill="white"/>
</g>
</svg>
